<svg viewBox="0 0 4267 4267" xmlns="http://www.w3.org/2000/svg" xml:space="preserve" style="fill-rule:evenodd;clip-rule:evenodd;stroke-linejoin:round;stroke-miterlimit:2"><path d="m3038.32 2982.28 892.221 892.217v-1784.83l-631.104 631.1-261.117 261.508ZM3930.54 1898.69V114.26l-892.217 892.213 353.617 354.016 538.6 538.205ZM1899.36 58.958H114.61l892.175 891.388 892.57-891.388ZM1102.08 1046.04l892.621 892.616 892.221-892.616h-1784.84ZM1101.68 967.292h1786.08L1995.119 74.254l-893.434 893.038ZM2090 2033.96l892.221 892.225 261.938-261.145 631.079-631.08h-1785.24ZM3876.78 1954.79l-589.688-587.325-304.883-304.88-892.2 892.205h1786.77Z" style="fill:#453a62;fill-rule:nonzero"/><path d="M336.792 392.571v1785.24l892.621-893.013-892.621-892.229ZM336.792 4152.85l892.616-892.225-892.616-892.617v1784.84Z" style="fill:#5e5086;fill-rule:nonzero"/><path d="m4153.18 4208.96-892.637-893.029-892.234 893.029h1784.87ZM1380.03 3221.04h1785.2l-892.209-892.213-892.996 892.213ZM3165.62 3300.62H1380.47l892.571 891.392 892.579-891.392Z" style="fill:#8f4e8b;fill-rule:nonzero"/><path d="m2177.32 2233.12-892.208-892.208-892.6 892.208h1784.81ZM392.504 2312.29l892.613 892.616 892.225-892.616H392.502Z" style="fill:#5e5086;fill-rule:nonzero"/></svg>